<svg xmlns="http://www.w3.org/2000/svg" viewBox="0 0 1764 864"><defs><style>.cls-1{fill:none;stroke:#2f7eb2;stroke-miterlimit:10;stroke-width:4px;}.cls-2{fill:#636569;}.cls-3{fill:#b0d0e4;}.cls-4{fill:#fff;}.cls-5{fill:#2f7eb2;}.cls-6{fill:#e6e6e6;}.cls-7{fill:#004b87;}</style></defs><g id="bits"><g id="src_bits" data-name="src bits"><circle class="cls-1" cx="378" cy="171" r="81"/><path class="cls-2" d="M341,154.64a2.29,2.29,0,0,0-2.09-1.51,1.65,1.65,0,0,0-1.8,1.69c0,1.08.72,1.4,2.41,2.12,2.16.9,3.17,1.59,3.75,2.31a3.51,3.51,0,0,1,.79,2.41c0,3.13-2.27,4.89-5.15,4.89a5.34,5.34,0,0,1-5.22-3.81l2.23-.94a3.4,3.4,0,0,0,3,2.45,2.32,2.32,0,0,0,2.45-2.38c0-1.4-1-1.87-2.42-2.48a9.62,9.62,0,0,1-3.63-2.2,3.22,3.22,0,0,1-.69-2.19,4,4,0,0,1,4.36-4.18,4.31,4.31,0,0,1,4.1,2.7Z"/><path class="cls-2" d="M346.59,158.71a7.92,7.92,0,1,1,7.92,7.84A7.67,7.67,0,0,1,346.59,158.71Zm2.66,0a5.27,5.27,0,1,0,5.26-5.58A5.18,5.18,0,0,0,349.25,158.71Z"/><path class="cls-2" d="M369,159.89a5.1,5.1,0,0,0,.72,3.21,3.58,3.58,0,0,0,5.26,0,5.1,5.1,0,0,0,.72-3.21v-8.71h2.59v9c0,1.84-.18,3.21-1.37,4.5a6.52,6.52,0,0,1-9.14,0c-1.19-1.29-1.37-2.66-1.37-4.5v-9H369Z"/><path class="cls-2" d="M383.17,151.18h2.59v1.62a4.15,4.15,0,0,1,3.38-2,5.35,5.35,0,0,1,2.3.62l-1.22,2.33a2.72,2.72,0,0,0-1.51-.5,2.51,2.51,0,0,0-2.09.94c-.43.57-.86,1.58-.86,4v7.88h-2.59Z"/><path class="cls-2" d="M404.66,155.36a6,6,0,0,0-4.68-2.23,5.57,5.57,0,0,0,0,11.12,6.33,6.33,0,0,0,4.82-2.34V165a8,8,0,0,1-4.75,1.54,7.87,7.87,0,1,1,0-15.73,8,8,0,0,1,4.65,1.44Z"/><path class="cls-2" d="M422,162.31a9.21,9.21,0,0,1-1.83,2.41,7.27,7.27,0,0,1-5,1.83c-3.6,0-7.38-2.26-7.38-7.81,0-4.46,2.73-7.92,7.23-7.92a6.69,6.69,0,0,1,5.66,2.74,10.07,10.07,0,0,1,1.4,5.61H410.45a4.79,4.79,0,0,0,4.75,5.08,4.52,4.52,0,0,0,3.06-1.08,5.87,5.87,0,0,0,1.55-2Zm-2.55-5.3a4.47,4.47,0,0,0-4.4-3.88,4.54,4.54,0,0,0-4.39,3.88Z"/><path class="cls-2" d="M359.64,202.12h-2.59V175.88h2.59v13.39a6.44,6.44,0,0,1,5.11-2.45c4.68,0,7.27,3.89,7.27,7.92s-2.63,7.81-7.16,7.81a6.35,6.35,0,0,1-5.22-2.52Zm9.72-7.38c0-3.67-2.48-5.61-4.9-5.61s-5,2-5,5.58c0,3.06,1.94,5.54,5,5.54S369.36,197.73,369.36,194.74Z"/><path class="cls-2" d="M377.28,179.7a1.84,1.84,0,1,1-1.84,1.83A1.84,1.84,0,0,1,377.28,179.7Zm1.3,7.48v14.94H376V187.18Z"/><path class="cls-2" d="M386.14,189.56v12.56h-2.6V189.56H382v-2.38h1.58v-5.4h2.6v5.4h2.59v2.38Z"/><path class="cls-2" d="M397.33,190.64a2.29,2.29,0,0,0-2.09-1.51,1.65,1.65,0,0,0-1.8,1.69c0,1.08.72,1.4,2.41,2.12,2.16.9,3.17,1.59,3.75,2.31a3.51,3.51,0,0,1,.79,2.41c0,3.13-2.27,4.89-5.15,4.89a5.34,5.34,0,0,1-5.22-3.81l2.23-.94a3.4,3.4,0,0,0,3,2.45,2.32,2.32,0,0,0,2.45-2.38c0-1.4-1-1.87-2.42-2.48a9.71,9.71,0,0,1-3.63-2.2A3.21,3.21,0,0,1,391,191a4,4,0,0,1,4.35-4.18,4.31,4.31,0,0,1,4.1,2.7Z"/></g><g id="rec_bits" data-name="rec bits"><circle class="cls-1" cx="378" cy="693" r="81"/><path class="cls-2" d="M320.85,673.18h2.59v1.62a4.17,4.17,0,0,1,3.39-2,5.39,5.39,0,0,1,2.3.62l-1.22,2.33a2.73,2.73,0,0,0-1.52-.5,2.48,2.48,0,0,0-2.08.94c-.44.57-.87,1.58-.87,4v7.88h-2.59Z"/><path class="cls-2" d="M343.89,684.31a9,9,0,0,1-1.84,2.41,7.25,7.25,0,0,1-5,1.83c-3.6,0-7.38-2.26-7.38-7.81,0-4.46,2.73-7.92,7.23-7.92a6.67,6.67,0,0,1,5.65,2.74,10,10,0,0,1,1.41,5.61H332.37a4.79,4.79,0,0,0,4.75,5.08,4.52,4.52,0,0,0,3.06-1.08,5.87,5.87,0,0,0,1.55-2Zm-2.56-5.3a4.46,4.46,0,0,0-4.39-3.88,4.54,4.54,0,0,0-4.39,3.88Z"/><path class="cls-2" d="M359.66,677.36a6,6,0,0,0-4.68-2.23,5.57,5.57,0,0,0,0,11.12,6.37,6.37,0,0,0,4.83-2.34V687a8,8,0,0,1-4.76,1.54,7.87,7.87,0,1,1,0-15.73,8,8,0,0,1,4.65,1.44Z"/><path class="cls-2" d="M377,684.31a9.21,9.21,0,0,1-1.83,2.41,7.27,7.27,0,0,1-5,1.83c-3.6,0-7.38-2.26-7.38-7.81,0-4.46,2.74-7.92,7.24-7.92a6.68,6.68,0,0,1,5.65,2.74,10.07,10.07,0,0,1,1.4,5.61H365.45a4.79,4.79,0,0,0,4.76,5.08,4.52,4.52,0,0,0,3.05-1.08,5.87,5.87,0,0,0,1.55-2Zm-2.55-5.3a4.47,4.47,0,0,0-4.39-3.88,4.54,4.54,0,0,0-4.4,3.88Z"/><path class="cls-2" d="M382.34,665.7a1.84,1.84,0,1,1-1.84,1.83A1.83,1.83,0,0,1,382.34,665.7Zm1.29,7.48v14.94H381V673.18Z"/><path class="cls-2" d="M389.25,673.18l4.46,10.08,4.47-10.08h2.88l-7.35,15.91-7.34-15.91Z"/><path class="cls-2" d="M417,684.31a9,9,0,0,1-1.84,2.41,7.25,7.25,0,0,1-5,1.83c-3.6,0-7.38-2.26-7.38-7.81,0-4.46,2.73-7.92,7.23-7.92a6.67,6.67,0,0,1,5.65,2.74,10,10,0,0,1,1.41,5.61H405.52a4.79,4.79,0,0,0,4.75,5.08,4.52,4.52,0,0,0,3.06-1.08,5.87,5.87,0,0,0,1.55-2Zm-2.56-5.3a4.46,4.46,0,0,0-4.39-3.88A4.54,4.54,0,0,0,405.7,679Z"/><path class="cls-2" d="M432.56,661.88h2.59v26.24h-2.59V686a6.31,6.31,0,0,1-5.12,2.52c-3.78,0-7.27-2.66-7.27-7.92s3.46-7.81,7.27-7.81a6.21,6.21,0,0,1,5.12,2.49Zm-9.72,18.75c0,3.21,1.8,5.62,4.89,5.62s5-2.63,5-5.58c0-3.85-2.66-5.54-5-5.54C425.18,675.13,422.84,677,422.84,680.63Z"/><path class="cls-2" d="M359.64,724.12h-2.59V697.88h2.59v13.39a6.44,6.44,0,0,1,5.11-2.45c4.68,0,7.27,3.89,7.27,7.92s-2.63,7.81-7.16,7.81a6.35,6.35,0,0,1-5.22-2.52Zm9.72-7.38c0-3.67-2.48-5.61-4.9-5.61s-5,2-5,5.58c0,3.06,1.94,5.54,5,5.54S369.36,719.73,369.36,716.74Z"/><path class="cls-2" d="M377.28,701.7a1.84,1.84,0,1,1-1.84,1.83A1.84,1.84,0,0,1,377.28,701.7Zm1.3,7.48v14.94H376V709.18Z"/><path class="cls-2" d="M386.14,711.56v12.56h-2.6V711.56H382v-2.38h1.58v-5.4h2.6v5.4h2.59v2.38Z"/><path class="cls-2" d="M397.33,712.64a2.29,2.29,0,0,0-2.09-1.51,1.65,1.65,0,0,0-1.8,1.69c0,1.08.72,1.4,2.41,2.12,2.16.9,3.17,1.59,3.75,2.31a3.51,3.51,0,0,1,.79,2.41c0,3.13-2.27,4.89-5.15,4.89a5.34,5.34,0,0,1-5.22-3.81l2.23-.94a3.4,3.4,0,0,0,3,2.45,2.32,2.32,0,0,0,2.45-2.38c0-1.4-1-1.87-2.42-2.48a9.71,9.71,0,0,1-3.63-2.2A3.21,3.21,0,0,1,391,713a4,4,0,0,1,4.35-4.18,4.31,4.31,0,0,1,4.1,2.7Z"/></g><g id="bit_text" data-name="bit text"><path class="cls-2" d="M290.18,309.48h-2.64v-16.8a13.5,13.5,0,0,1-2.5,1.81,18,18,0,0,1-2.77,1.37v-2.55a16.29,16.29,0,0,0,3.86-2.52,10,10,0,0,0,2.35-2.87h1.7Z"/><path class="cls-2" d="M305.26,298.89a19.7,19.7,0,0,1,.79-6.13,7.6,7.6,0,0,1,2.33-3.58,5.94,5.94,0,0,1,3.89-1.26,6.39,6.39,0,0,1,3,.69,5.82,5.82,0,0,1,2.15,2,10.87,10.87,0,0,1,1.34,3.19,21.42,21.42,0,0,1,.48,5.08,19.62,19.62,0,0,1-.78,6.1,7.66,7.66,0,0,1-2.32,3.59,6,6,0,0,1-3.9,1.27,5.91,5.91,0,0,1-4.88-2.23Q305.26,304.93,305.26,298.89Zm2.71,0c0,3.52.42,5.87,1.24,7a3.68,3.68,0,0,0,3.06,1.75,3.64,3.64,0,0,0,3.05-1.76c.83-1.17,1.24-3.52,1.24-7s-.41-5.89-1.24-7.05a3.66,3.66,0,0,0-3.08-1.74,3.37,3.37,0,0,0-2.9,1.54C308.43,293,308,295.36,308,298.89Z"/><path class="cls-2" d="M330.28,298.89a19.7,19.7,0,0,1,.79-6.13,7.6,7.6,0,0,1,2.33-3.58,5.94,5.94,0,0,1,3.89-1.26,6.39,6.39,0,0,1,3,.69,5.82,5.82,0,0,1,2.15,2,10.6,10.6,0,0,1,1.33,3.19,20.84,20.84,0,0,1,.49,5.08,19.62,19.62,0,0,1-.78,6.1,7.66,7.66,0,0,1-2.32,3.59,6,6,0,0,1-3.9,1.27,5.91,5.91,0,0,1-4.88-2.23Q330.28,304.93,330.28,298.89Zm2.71,0c0,3.52.42,5.87,1.24,7a3.68,3.68,0,0,0,3.06,1.75,3.64,3.64,0,0,0,3-1.76c.83-1.17,1.24-3.52,1.24-7s-.41-5.89-1.24-7.05a3.66,3.66,0,0,0-3.08-1.74,3.37,3.37,0,0,0-2.9,1.54C333.45,293,333,295.36,333,298.89Z"/><path class="cls-2" d="M365.24,309.48H362.6v-16.8a13.85,13.85,0,0,1-2.5,1.81,18,18,0,0,1-2.77,1.37v-2.55a16.29,16.29,0,0,0,3.86-2.52,10,10,0,0,0,2.35-2.87h1.7Z"/><path class="cls-2" d="M390.25,309.48h-2.63v-16.8a13.85,13.85,0,0,1-2.5,1.81,17.65,17.65,0,0,1-2.78,1.37v-2.55a16.16,16.16,0,0,0,3.87-2.52,10,10,0,0,0,2.35-2.87h1.69Z"/><path class="cls-2" d="M405.34,298.89a19.41,19.41,0,0,1,.79-6.13,7.6,7.6,0,0,1,2.33-3.58,5.93,5.93,0,0,1,3.88-1.26,6.4,6.4,0,0,1,3,.69,5.9,5.9,0,0,1,2.15,2,10.6,10.6,0,0,1,1.33,3.19,20.84,20.84,0,0,1,.49,5.08,19.62,19.62,0,0,1-.78,6.1,7.66,7.66,0,0,1-2.32,3.59,6,6,0,0,1-3.91,1.27,5.89,5.89,0,0,1-4.87-2.23Q405.34,304.93,405.34,298.89Zm2.71,0c0,3.52.42,5.87,1.24,7a3.54,3.54,0,0,0,6.11,0c.82-1.17,1.24-3.52,1.24-7s-.42-5.89-1.24-7.05a3.68,3.68,0,0,0-3.08-1.74,3.36,3.36,0,0,0-2.9,1.54C408.51,293,408.05,295.36,408.05,298.89Z"/><path class="cls-2" d="M440.29,309.48h-2.63v-16.8a13.85,13.85,0,0,1-2.5,1.81,18.09,18.09,0,0,1-2.78,1.37v-2.55a16.16,16.16,0,0,0,3.87-2.52,10,10,0,0,0,2.34-2.87h1.7Z"/><path class="cls-2" d="M465.31,309.48h-2.63v-16.8a13.85,13.85,0,0,1-2.5,1.81,18.09,18.09,0,0,1-2.78,1.37v-2.55a16.16,16.16,0,0,0,3.87-2.52,10,10,0,0,0,2.34-2.87h1.7Z"/><path class="cls-2" d="M481.88,309.48v-3h3v3Z"/><path class="cls-2" d="M490.22,309.48v-3h3v3Z"/><path class="cls-2" d="M498.55,309.48v-3h3v3Z"/><path class="cls-2" d="M290.18,579.48h-2.64v-16.8a13.5,13.5,0,0,1-2.5,1.81,18,18,0,0,1-2.77,1.37v-2.55a16.29,16.29,0,0,0,3.86-2.52,10,10,0,0,0,2.35-2.87h1.7Z"/><path class="cls-2" d="M305.26,568.89a19.7,19.7,0,0,1,.79-6.13,7.6,7.6,0,0,1,2.33-3.58,5.94,5.94,0,0,1,3.89-1.26,6.39,6.39,0,0,1,3,.69,5.82,5.82,0,0,1,2.15,2,10.87,10.87,0,0,1,1.34,3.19,21.42,21.42,0,0,1,.48,5.08,19.62,19.62,0,0,1-.78,6.1,7.66,7.66,0,0,1-2.32,3.59,6,6,0,0,1-3.9,1.27,5.91,5.91,0,0,1-4.88-2.23Q305.26,574.94,305.26,568.89Zm2.71,0c0,3.52.42,5.87,1.24,7a3.68,3.68,0,0,0,3.06,1.75,3.64,3.64,0,0,0,3.05-1.76c.83-1.17,1.24-3.52,1.24-7s-.41-5.89-1.24-7a3.66,3.66,0,0,0-3.08-1.74,3.37,3.37,0,0,0-2.9,1.54C308.43,563,308,565.36,308,568.89Z"/><path class="cls-2" d="M330.28,568.89a19.7,19.7,0,0,1,.79-6.13,7.6,7.6,0,0,1,2.33-3.58,5.94,5.94,0,0,1,3.89-1.26,6.39,6.39,0,0,1,3,.69,5.82,5.82,0,0,1,2.15,2,10.6,10.6,0,0,1,1.33,3.19,20.84,20.84,0,0,1,.49,5.08,19.62,19.62,0,0,1-.78,6.1,7.66,7.66,0,0,1-2.32,3.59,6,6,0,0,1-3.9,1.27,5.91,5.91,0,0,1-4.88-2.23Q330.28,574.94,330.28,568.89Zm2.71,0c0,3.52.42,5.87,1.24,7a3.68,3.68,0,0,0,3.06,1.75,3.64,3.64,0,0,0,3-1.76c.83-1.17,1.24-3.52,1.24-7s-.41-5.89-1.24-7a3.66,3.66,0,0,0-3.08-1.74,3.37,3.37,0,0,0-2.9,1.54C333.45,563,333,565.36,333,568.89Z"/><path class="cls-2" d="M365.24,579.48H362.6v-16.8a13.85,13.85,0,0,1-2.5,1.81,18,18,0,0,1-2.77,1.37v-2.55a16.29,16.29,0,0,0,3.86-2.52,10,10,0,0,0,2.35-2.87h1.7Z"/><path class="cls-2" d="M380.32,568.89a19.41,19.41,0,0,1,.79-6.13,7.6,7.6,0,0,1,2.33-3.58,5.94,5.94,0,0,1,3.89-1.26,6.39,6.39,0,0,1,3,.69,5.9,5.9,0,0,1,2.15,2,10.6,10.6,0,0,1,1.33,3.19,20.84,20.84,0,0,1,.49,5.08,19.62,19.62,0,0,1-.78,6.1,7.66,7.66,0,0,1-2.32,3.59,6,6,0,0,1-3.9,1.27,5.9,5.9,0,0,1-4.88-2.23Q380.32,574.94,380.32,568.89Zm2.71,0c0,3.52.42,5.87,1.24,7a3.54,3.54,0,0,0,6.11,0c.82-1.17,1.24-3.52,1.24-7s-.42-5.89-1.24-7a3.68,3.68,0,0,0-3.08-1.74,3.36,3.36,0,0,0-2.9,1.54C383.49,563,383,565.36,383,568.89Z"/><path class="cls-2" d="M405.34,568.89a19.41,19.41,0,0,1,.79-6.13,7.6,7.6,0,0,1,2.33-3.58,5.93,5.93,0,0,1,3.88-1.26,6.4,6.4,0,0,1,3,.69,5.9,5.9,0,0,1,2.15,2,10.6,10.6,0,0,1,1.33,3.19,20.84,20.84,0,0,1,.49,5.08,19.62,19.62,0,0,1-.78,6.1,7.66,7.66,0,0,1-2.32,3.59,6,6,0,0,1-3.91,1.27,5.89,5.89,0,0,1-4.87-2.23Q405.34,574.94,405.34,568.89Zm2.71,0c0,3.52.42,5.87,1.24,7a3.54,3.54,0,0,0,6.11,0c.82-1.17,1.24-3.52,1.24-7s-.42-5.89-1.24-7a3.68,3.68,0,0,0-3.08-1.74,3.36,3.36,0,0,0-2.9,1.54C408.51,563,408.05,565.36,408.05,568.89Z"/><path class="cls-2" d="M440.29,579.48h-2.63v-16.8a13.85,13.85,0,0,1-2.5,1.81,18.09,18.09,0,0,1-2.78,1.37v-2.55a16.16,16.16,0,0,0,3.87-2.52,10,10,0,0,0,2.34-2.87h1.7Z"/><path class="cls-2" d="M465.31,579.48h-2.63v-16.8a13.85,13.85,0,0,1-2.5,1.81,18.09,18.09,0,0,1-2.78,1.37v-2.55a16.16,16.16,0,0,0,3.87-2.52,10,10,0,0,0,2.34-2.87h1.7Z"/><path class="cls-2" d="M481.88,579.48v-3h3v3Z"/><path class="cls-2" d="M490.22,579.48v-3h3v3Z"/><path class="cls-2" d="M498.55,579.48v-3h3v3Z"/></g></g><g id="TxRx_1_block" data-name="TxRx 1 block"><g id="Transmitter"><path id="Wide_box" data-name="Wide box" class="cls-3" d="M720,171V96.9C720,73.21,736.08,54,755.92,54h342.16c19.84,0,35.92,19.21,35.92,42.9V245.1c0,23.69-16.08,42.9-35.92,42.9H755.92C736.08,288,720,268.79,720,245.1V171"/><path class="cls-2" d="M846.36,314.67v15h-4.31v-15H838V311h12.43v3.64Z"/><path class="cls-2" d="M859.24,311a6.67,6.67,0,0,1,4.76,1.62,5.62,5.62,0,0,1,1.63,4.18,5.11,5.11,0,0,1-1.46,3.8,5.82,5.82,0,0,1-2.6,1.43l5.74,7.65H862l-5-7.37v7.37h-4.31V311ZM857,319.51h1a3.54,3.54,0,0,0,2.58-.81,2.5,2.5,0,0,0,.7-1.82,2.27,2.27,0,0,0-.87-1.9,4.23,4.23,0,0,0-2.38-.59h-1Z"/><path class="cls-2" d="M881,326.18h-7.06l-1.43,3.53H868L875.54,311h3.94l7.37,18.68h-4.48Zm-1.18-3.31-2.29-6.27-2.33,6.27Z"/><path class="cls-2" d="M889,329.71V311h3.75l10.14,12V311h4.31v18.68H903.4l-10.14-12.1v12.1Z"/><path class="cls-2" d="M920.87,315.59a4.55,4.55,0,0,0-3.14-1.34,2.34,2.34,0,0,0-1.82.64,1.67,1.67,0,0,0-.47,1.18,1.33,1.33,0,0,0,.42,1,7.51,7.51,0,0,0,2.35,1.06l1.4.53a7.58,7.58,0,0,1,2.55,1.43,4.67,4.67,0,0,1,1.37,3.47,6.7,6.7,0,0,1-1.65,4.62,7.25,7.25,0,0,1-5.3,1.91,7.86,7.86,0,0,1-3.69-.79,11.77,11.77,0,0,1-2.75-2l2.24-3.08a12.42,12.42,0,0,0,1.74,1.43,4.4,4.4,0,0,0,2.35.67,2.94,2.94,0,0,0,2-.65,1.9,1.9,0,0,0,.67-1.51,1.64,1.64,0,0,0-.64-1.34,9.23,9.23,0,0,0-2.18-1l-1.54-.53a6.36,6.36,0,0,1-2.61-1.48,4.61,4.61,0,0,1-1.12-3.25,5.75,5.75,0,0,1,1.63-4.2,6,6,0,0,1,4.62-1.71,9,9,0,0,1,5.54,1.85Z"/><path class="cls-2" d="M925.77,329.71l3-18.68h3.59L937,322.2,941.64,311h3.59l3,18.68h-4.31l-1.48-11.15-4.68,11.15h-1.51l-4.68-11.15-1.48,11.15Z"/><path class="cls-2" d="M955.84,311v18.68h-4.31V311Z"/><path class="cls-2" d="M966.56,314.67v15h-4.31v-15h-4.06V311h12.43v3.64Z"/><path class="cls-2" d="M980.9,314.67v15h-4.31v-15h-4.06V311H985v3.64Z"/><path class="cls-2" d="M997.78,314.67h-6.24v3.61h5.93v3.64h-5.93v4.15h6.24v3.64H987.23V311h10.55Z"/><path class="cls-2" d="M1007.83,311a6.67,6.67,0,0,1,4.76,1.62,5.62,5.62,0,0,1,1.63,4.18,5.07,5.07,0,0,1-1.46,3.8,5.82,5.82,0,0,1-2.6,1.43l5.74,7.65h-5.27l-5-7.37v7.37h-4.31V311Zm-2.24,8.48h1a3.54,3.54,0,0,0,2.58-.81,2.5,2.5,0,0,0,.7-1.82,2.25,2.25,0,0,0-.87-1.9,4.23,4.23,0,0,0-2.38-.59h-1Z"/><g id="QAM_Mod_white_2" data-name="QAM Mod white 2"><rect class="cls-4" x="819" y="99" width="216" height="144" rx="17.76"/><path class="cls-2" d="M907.5,162.36a12.5,12.5,0,0,1-7.23,2.19,12.42,12.42,0,1,1,12.49-12.41,12.11,12.11,0,0,1-3.38,8.6l3.52,3.63h-3.45Zm0-3.57a9.55,9.55,0,0,0,2.55-6.65,9.74,9.74,0,1,0-4.42,8.31l-5.8-6h3.46Z"/><path class="cls-2" d="M930.9,157.35H920.68l-2.88,6.77h-2.95l11-25.16,10.76,25.16h-2.95Zm-1-2.52-4-9.61-4.11,9.61Z"/><path class="cls-2" d="M939.22,164.12l4-25.34,9.21,20.27,9.4-20.31,3.74,25.38h-2.74l-2.26-16.7-8.17,17.71-8.07-17.71L942,164.12Z"/><path class="cls-2" d="M854.62,204.12l4-25.34,9.21,20.27,9.4-20.31L881,204.12h-2.73L876,187.42l-8.17,17.71-8.07-17.71-2.37,16.7Z"/><path class="cls-2" d="M884.94,196.71a7.92,7.92,0,1,1,7.91,7.84A7.67,7.67,0,0,1,884.94,196.71Zm2.66,0a5.26,5.26,0,1,0,5.25-5.58A5.17,5.17,0,0,0,887.6,196.71Z"/><path class="cls-2" d="M916.18,177.88h2.59v26.24h-2.59V202a6.28,6.28,0,0,1-5.11,2.52c-3.78,0-7.27-2.66-7.27-7.92s3.45-7.81,7.27-7.81a6.17,6.17,0,0,1,5.11,2.49Zm-9.72,18.75c0,3.21,1.8,5.62,4.9,5.62s5-2.63,5-5.58c0-3.85-2.67-5.54-5-5.54C908.8,191.13,906.46,193,906.46,196.63Z"/><path class="cls-2" d="M926.26,197.89a5.1,5.1,0,0,0,.72,3.21,3.58,3.58,0,0,0,5.26,0,5.1,5.1,0,0,0,.72-3.21v-8.71h2.59v9c0,1.84-.18,3.21-1.37,4.5a6.52,6.52,0,0,1-9.14,0c-1.19-1.29-1.37-2.66-1.37-4.5v-9h2.59Z"/><path class="cls-2" d="M943,177.88v26.24h-2.59V177.88Z"/><path class="cls-2" d="M959.38,189.18H962v14.94h-2.59V202a6.28,6.28,0,0,1-5.11,2.52c-3.78,0-7.27-2.66-7.27-7.92s3.45-7.81,7.27-7.81a6.17,6.17,0,0,1,5.11,2.49Zm-9.72,7.45c0,3.21,1.8,5.62,4.9,5.62s5-2.63,5-5.58c0-3.85-2.66-5.54-5-5.54C952,191.13,949.66,193,949.66,196.63Z"/><path class="cls-2" d="M969.53,191.56v12.56h-2.59V191.56h-1.58v-2.38h1.58v-5.4h2.59v5.4h2.59v2.38Z"/><path class="cls-2" d="M973.64,196.71a7.92,7.92,0,1,1,7.92,7.84A7.67,7.67,0,0,1,973.64,196.71Zm2.66,0a5.26,5.26,0,1,0,10.51,0c0-3.67-2.52-5.58-5.25-5.58A5.19,5.19,0,0,0,976.3,196.71Z"/><path class="cls-2" d="M993.44,189.18H996v1.62a4.16,4.16,0,0,1,3.38-2,5.35,5.35,0,0,1,2.3.62l-1.22,2.33a2.68,2.68,0,0,0-1.51-.5,2.51,2.51,0,0,0-2.09.94c-.43.57-.86,1.58-.86,4v7.88h-2.59Z"/></g></g><g id="Receiver"><path class="cls-3" d="M720,683.92V617.15c0-22.72,15.43-41.15,34.46-41.15h345.08c19,0,34.46,18.43,34.46,41.15v151.7c0,22.72-15.43,41.15-34.46,41.15H754.46c-19,0-34.46-18.43-34.46-41.15V683.92"/><path class="cls-2" d="M875.27,536a6.69,6.69,0,0,1,4.76,1.62,5.66,5.66,0,0,1,1.62,4.18,5.1,5.1,0,0,1-1.45,3.8,5.85,5.85,0,0,1-2.61,1.43l5.74,7.65h-5.26l-5-7.37v7.37h-4.31V536ZM873,544.51h1a3.55,3.55,0,0,0,2.58-.81,2.54,2.54,0,0,0,.7-1.82,2.27,2.27,0,0,0-.87-1.9,4.23,4.23,0,0,0-2.38-.59h-1Z"/><path class="cls-2" d="M896.27,539.67H890v3.61H896v3.64H890v4.15h6.24v3.64H885.71V536h10.56Z"/><path class="cls-2" d="M913.27,554.12a8.69,8.69,0,0,1-4.12,1,10,10,0,0,1-7.34-2.72,10,10,0,0,1,0-14.11,9.94,9.94,0,0,1,7-2.69,11,11,0,0,1,4.48,1v5a5.93,5.93,0,0,0-4.37-2,5.25,5.25,0,0,0-3.81,1.46,6,6,0,0,0-1.76,4.31,5.44,5.44,0,0,0,5.65,5.68,5.87,5.87,0,0,0,4.29-1.93Z"/><path class="cls-2" d="M927.27,539.67H921v3.61H927v3.64H921v4.15h6.25v3.64H916.71V536h10.56Z"/><path class="cls-2" d="M935.16,536v18.68h-4.31V536Z"/><path class="cls-2" d="M942.05,536l4.73,12,4.73-12h4.65l-7.92,18.68h-2.91L937.4,536Z"/><path class="cls-2" d="M968.88,539.67h-6.25v3.61h5.94v3.64h-5.94v4.15h6.25v3.64H958.32V536h10.56Z"/><path class="cls-2" d="M978.93,536a6.69,6.69,0,0,1,4.76,1.62,5.66,5.66,0,0,1,1.62,4.18,5.07,5.07,0,0,1-1.46,3.8,5.76,5.76,0,0,1-2.6,1.43l5.74,7.65h-5.26l-5-7.37v7.37h-4.31V536Zm-2.24,8.48h1a3.53,3.53,0,0,0,2.57-.81,2.5,2.5,0,0,0,.7-1.82,2.27,2.27,0,0,0-.86-1.9,4.26,4.26,0,0,0-2.39-.59h-1Z"/><g id="QAM_Demod_white_2" data-name="QAM Demod white 2"><rect class="cls-4" x="819" y="621" width="216" height="144" rx="20.9"/><path class="cls-2" d="M908.05,684a12.12,12.12,0,0,1-7,2.14,12.08,12.08,0,1,1,12.15-12.08,11.76,11.76,0,0,1-3.29,8.37L913.3,686h-3.36Zm0-3.46a9.3,9.3,0,0,0,2.49-6.48,9.48,9.48,0,1,0-4.3,8.09l-5.64-5.81h3.36Z"/><path class="cls-2" d="M930.8,679.18h-9.94l-2.8,6.58h-2.87l10.74-24.47,10.47,24.47h-2.87Zm-1-2.45-3.92-9.35-4,9.35Z"/><path class="cls-2" d="M938.88,685.76l3.89-24.64,9,19.7,9.14-19.74,3.64,24.68h-2.67l-2.2-16.24-7.95,17.22-7.84-17.22-2.31,16.24Z"/><path class="cls-2" d="M841.08,702.41h4.76a12.73,12.73,0,0,1,8.61,2.73,11.4,11.4,0,0,1,4,9,11.11,11.11,0,0,1-4.1,9c-2.13,1.82-4.37,2.7-8.54,2.7h-4.72Zm2.59,20.9h2.27a10,10,0,0,0,6.69-2.1,8.94,8.94,0,0,0,3.15-7.11c0-5.6-3.92-9.24-9.84-9.24h-2.27Z"/><path class="cls-2" d="M875.45,722.05a8.59,8.59,0,0,1-1.79,2.34,7,7,0,0,1-4.83,1.79c-3.5,0-7.17-2.21-7.17-7.6,0-4.34,2.66-7.7,7-7.7a6.51,6.51,0,0,1,5.5,2.66,9.77,9.77,0,0,1,1.36,5.46h-11.3a4.65,4.65,0,0,0,4.62,4.94,4.4,4.4,0,0,0,3-1.05,5.82,5.82,0,0,0,1.51-2ZM873,716.9a4.35,4.35,0,0,0-4.27-3.78,4.42,4.42,0,0,0-4.27,3.78Z"/><path class="cls-2" d="M879.4,711.23h2.52v1.54a4.23,4.23,0,0,1,3.61-1.89,4.35,4.35,0,0,1,4,2.35,4.85,4.85,0,0,1,4.38-2.35c4.3,0,4.72,3.61,4.72,5.67v9.21h-2.52v-8.82c0-1.65-.21-3.82-2.59-3.82-2.9,0-3.22,2.8-3.22,4.55v8.09h-2.52v-8.61c0-1,0-4-2.62-4-2.87,0-3.19,3-3.19,4.73v7.91H879.4Z"/><path class="cls-2" d="M902.47,718.55a7.7,7.7,0,1,1,7.7,7.63A7.46,7.46,0,0,1,902.47,718.55Zm2.59,0a5.12,5.12,0,1,0,5.11-5.43A5,5,0,0,0,905.06,718.55Z"/><path class="cls-2" d="M932.85,700.24h2.52v25.52h-2.52v-2a6.15,6.15,0,0,1-5,2.45c-3.68,0-7.07-2.59-7.07-7.7s3.36-7.6,7.07-7.6a6,6,0,0,1,5,2.42Zm-9.45,18.24c0,3.11,1.75,5.46,4.76,5.46s4.83-2.56,4.83-5.43c0-3.74-2.59-5.39-4.83-5.39C925.67,713.12,923.4,714.94,923.4,718.48Z"/><path class="cls-2" d="M942.65,719.7a5,5,0,0,0,.7,3.12,3.07,3.07,0,0,0,2.55,1.12,3.1,3.1,0,0,0,2.56-1.12,5,5,0,0,0,.7-3.12v-8.47h2.52V720c0,1.79-.18,3.12-1.33,4.38a6.34,6.34,0,0,1-8.89,0c-1.16-1.26-1.33-2.59-1.33-4.38v-8.75h2.52Z"/><path class="cls-2" d="M959,700.24v25.52h-2.52V700.24Z"/><path class="cls-2" d="M974.85,711.23h2.52v14.53h-2.52v-2a6.15,6.15,0,0,1-5,2.45c-3.68,0-7.08-2.59-7.08-7.7s3.37-7.6,7.08-7.6a6,6,0,0,1,5,2.42Zm-9.45,7.25c0,3.11,1.75,5.46,4.76,5.46s4.83-2.56,4.83-5.43c0-3.74-2.59-5.39-4.83-5.39C967.67,713.12,965.4,714.94,965.4,718.48Z"/><path class="cls-2" d="M984.71,713.54v12.22h-2.52V713.54h-1.54v-2.31h1.54V706h2.52v5.25h2.53v2.31Z"/><path class="cls-2" d="M988.7,718.55a7.71,7.71,0,1,1,7.71,7.63A7.47,7.47,0,0,1,988.7,718.55Zm2.59,0a5.12,5.12,0,1,0,5.12-5.43A5,5,0,0,0,991.29,718.55Z"/><path class="cls-2" d="M1008,711.23h2.52v1.58a4,4,0,0,1,3.29-1.93,5.25,5.25,0,0,1,2.24.6l-1.19,2.27a2.62,2.62,0,0,0-1.47-.49,2.45,2.45,0,0,0-2,.91c-.42.56-.84,1.54-.84,3.92v7.67H1008Z"/></g></g><g id="flow_lines" data-name="flow lines"><line class="cls-1" x1="460.25" y1="171" x2="812.14" y2="171"/><polygon class="cls-5" points="800.19 181.17 810.37 171 800.19 160.83 808.83 160.83 819 171 808.83 181.17 800.19 181.17"/><line class="cls-1" x1="819" y1="693" x2="465.86" y2="693"/><polygon class="cls-5" points="477.81 682.83 467.63 693 477.81 703.17 469.17 703.17 459 693 469.17 682.83 477.81 682.83"/></g></g><g id="Channel"><g id="Channel_box" data-name="Channel box"><rect class="cls-6" x="1350" y="306" width="252" height="252" rx="53.71" transform="translate(1044 1908) rotate(-90)"/><path class="cls-2" d="M1207.42,441.62a8.66,8.66,0,0,1-4.11,1,10,10,0,0,1-7.34-2.72,10,10,0,0,1,0-14.11,9.89,9.89,0,0,1,7-2.69,11,11,0,0,1,4.48,1v5a5.9,5.9,0,0,0-4.36-2,5.25,5.25,0,0,0-3.81,1.46,6,6,0,0,0-1.77,4.31,5.46,5.46,0,0,0,5.66,5.68,5.85,5.85,0,0,0,4.28-1.93Z"/><path class="cls-2" d="M1215.18,430.64h7.45v-7.11h4.31v18.68h-4.31v-7.93h-7.45v7.93h-4.31V423.53h4.31Z"/><path class="cls-2" d="M1242,438.68h-7l-1.43,3.53H1229l7.53-18.68h4l7.36,18.68h-4.48Zm-1.17-3.31-2.3-6.27-2.32,6.27Z"/><path class="cls-2" d="M1250,442.21V423.53h3.76l10.13,12v-12h4.31v18.68h-3.75l-10.13-12.1v12.1Z"/><path class="cls-2" d="M1272.27,442.21V423.53H1276l10.14,12v-12h4.31v18.68h-3.75l-10.14-12.1v12.1Z"/><path class="cls-2" d="M1305.12,427.17h-6.25v3.61h5.94v3.64h-5.94v4.15h6.25v3.64h-10.56V423.53h10.56Z"/><path class="cls-2" d="M1312.93,423.53v15h5.79v3.64h-10.1V423.53Z"/></g><g id="_1_block" data-name="1 block"><g id="AWGN_blue" data-name="AWGN blue"><rect class="cls-7" x="1395" y="360" width="162" height="144" rx="27.51"/><path class="cls-4" d="M1437.39,440.11h-8.57l-1.73,4.28h-5.44l9.15-22.67h4.79l8.94,22.67h-5.44Zm-1.43-4-2.78-7.62-2.83,7.62Z"/><path class="cls-4" d="M1448.78,421.72l4.83,15,4.83-15h3.6l4.83,15,4.83-15h5.44l-7.72,22.67H1465l-4.76-13.77-4.76,13.77h-4.42l-7.72-22.67Z"/><path class="cls-4" d="M1490.67,432h11.25v.24c0,2.75-1,6.93-3.5,9.55a10.38,10.38,0,0,1-8.09,3.09,10.65,10.65,0,0,1-8.29-3.16,12.89,12.89,0,0,1-.07-17.24c2.78-2.89,6.22-3.29,8.9-3.29a11.39,11.39,0,0,1,6.36,1.7,12.42,12.42,0,0,1,3.67,4l-4.72,2.55a6.87,6.87,0,0,0-2-2.45,5.72,5.72,0,0,0-3.47-1.08,6.16,6.16,0,0,0-4.69,1.83,7.77,7.77,0,0,0-1.94,5.37,7.16,7.16,0,0,0,1.91,5.21,5.94,5.94,0,0,0,4.59,1.76,5.82,5.82,0,0,0,3.94-1.22,5.3,5.3,0,0,0,1.63-2.69h-5.47Z"/><path class="cls-4" d="M1505.83,444.39V421.72h4.56l12.31,14.61V421.72h5.23v22.67h-4.55l-12.31-14.68v14.68Z"/></g><g id="flow_txrx_1" data-name="flow txrx 1"><path class="cls-1" d="M1476,504V668.35s0,24.65-27,24.65H1041.86"/><polygon class="cls-5" points="1053.81 682.83 1043.63 693 1053.81 703.17 1045.17 703.17 1035 693 1045.17 682.83 1053.81 682.83"/><path class="cls-1" d="M1035,171h414c27,0,27,24.65,27,27.58l0,154.56"/><polygon class="cls-5" points="1465.78 341.19 1475.95 351.37 1486.13 341.19 1486.13 349.83 1475.95 360 1465.78 349.82 1465.78 341.19"/></g></g></g></svg>